<svg aria-hidden="true" style="position: absolute; width: 0; height: 0; overflow: hidden;" version="1.1" xmlns="http://www.w3.org/2000/svg" xmlns:xlink="http://www.w3.org/1999/xlink">
<defs>
<symbol id="icon-linkedin" viewBox="0 0 18 18">
<path d="M7.071 6.726h2.786v1.387c0.401-0.798 1.43-1.515 2.976-1.515 2.963 0 3.667 1.588 3.667 4.503v5.398h-3v-4.734c0-1.66-0.401-2.596-1.423-2.596-1.417 0-2.005 1.009-2.005 2.595v4.735h-3v-9.773zM1.927 16.372h3v-9.773h-3v9.773zM5.357 3.412c0 0.251-0.050 0.5-0.147 0.732s-0.239 0.442-0.418 0.619c-0.363 0.36-0.854 0.562-1.365 0.561s-1-0.202-1.363-0.56c-0.178-0.177-0.32-0.388-0.417-0.62s-0.147-0.481-0.147-0.732c0-0.508 0.202-0.994 0.565-1.352s0.853-0.56 1.364-0.56c0.511 0 1.002 0.202 1.364 0.56s0.565 0.844 0.565 1.352z"></path>
</symbol>
<symbol id="icon-instagram" viewBox="0 0 18 18">
<path d="M9 5.394c-1.995 0-3.605 1.61-3.605 3.605s1.61 3.605 3.605 3.605c1.995 0 3.605-1.61 3.605-3.605s-1.61-3.605-3.605-3.605zM9 11.343c-1.29 0-2.343-1.053-2.343-2.343s1.053-2.343 2.343-2.343c1.29 0 2.343 1.053 2.343 2.343s-1.053 2.343-2.343 2.343zM12.753 4.406c-0.466 0-0.842 0.376-0.842 0.842s0.376 0.842 0.842 0.842c0.466 0 0.842-0.374 0.842-0.842 0-0.111-0.021-0.22-0.064-0.322s-0.104-0.195-0.182-0.273-0.171-0.14-0.273-0.182c-0.102-0.042-0.212-0.064-0.322-0.064zM16.028 9c0-0.97 0.009-1.932-0.046-2.9-0.054-1.125-0.311-2.123-1.134-2.946-0.824-0.824-1.821-1.079-2.946-1.134-0.97-0.054-1.932-0.046-2.9-0.046-0.97 0-1.932-0.009-2.9 0.046-1.125 0.054-2.123 0.311-2.946 1.134-0.824 0.824-1.079 1.821-1.134 2.946-0.054 0.97-0.046 1.932-0.046 2.9s-0.009 1.932 0.046 2.9c0.054 1.125 0.311 2.123 1.134 2.946 0.824 0.824 1.821 1.079 2.946 1.134 0.97 0.054 1.932 0.046 2.9 0.046 0.97 0 1.932 0.009 2.9-0.046 1.125-0.055 2.123-0.311 2.946-1.134 0.824-0.825 1.079-1.821 1.134-2.946 0.056-0.969 0.046-1.93 0.046-2.9zM14.481 13.145c-0.128 0.32-0.283 0.559-0.531 0.805-0.248 0.248-0.485 0.403-0.805 0.531-0.925 0.367-3.12 0.285-4.145 0.285s-3.222 0.083-4.147-0.283c-0.32-0.128-0.559-0.283-0.805-0.531-0.248-0.248-0.403-0.485-0.531-0.805-0.366-0.926-0.283-3.122-0.283-4.147s-0.083-3.222 0.283-4.147c0.128-0.32 0.283-0.559 0.531-0.805s0.485-0.403 0.805-0.531c0.925-0.366 3.122-0.283 4.147-0.283s3.222-0.083 4.147 0.283c0.32 0.128 0.559 0.283 0.805 0.531 0.248 0.248 0.403 0.485 0.531 0.805 0.366 0.925 0.283 3.122 0.283 4.147s0.083 3.22-0.285 4.145z"></path>
</symbol>
<symbol id="icon-twitter" viewBox="0 0 18 18">
<path d="M6.705 14.028c0.95 0.006 1.892-0.177 2.771-0.538s1.678-0.893 2.349-1.565c0.672-0.672 1.204-1.47 1.564-2.349s0.544-1.821 0.538-2.771v-0.332c0.493-0.361 0.919-0.804 1.26-1.311-0.464 0.203-0.954 0.337-1.457 0.399 0.533-0.317 0.932-0.817 1.125-1.406-0.496 0.298-1.041 0.507-1.609 0.619-0.383-0.408-0.889-0.678-1.44-0.769s-1.118 0.002-1.611 0.266-0.886 0.682-1.117 1.19c-0.231 0.509-0.289 1.080-0.163 1.624-1.009-0.050-1.996-0.311-2.898-0.768s-1.696-1.098-2.333-1.882c-0.321 0.558-0.419 1.216-0.272 1.843s0.525 1.174 1.060 1.532c-0.395-0.015-0.78-0.123-1.125-0.315v0.028c-0.004 0.583 0.193 1.149 0.556 1.604s0.872 0.773 1.441 0.899c-0.367 0.099-0.751 0.114-1.125 0.045 0.165 0.497 0.479 0.931 0.9 1.242s0.928 0.484 1.451 0.496c-0.895 0.72-2.007 1.117-3.156 1.125-0.201-0.006-0.402-0.023-0.602-0.051 1.163 0.741 2.514 1.131 3.892 1.125z"></path>
</symbol>
<symbol id="icon-facebook" viewBox="0 0 18 18">
<path d="M12.75 2.625c0-0.099-0.039-0.195-0.11-0.265s-0.166-0.11-0.265-0.11h-1.875c-0.944-0.047-1.869 0.282-2.571 0.914s-1.126 1.517-1.179 2.461v2.025h-1.875c-0.099 0-0.195 0.040-0.265 0.11s-0.11 0.166-0.11 0.265v1.95c0 0.099 0.040 0.195 0.11 0.265s0.166 0.11 0.265 0.11h1.875v5.025c0 0.099 0.040 0.195 0.11 0.265s0.166 0.11 0.265 0.11h2.25c0.099 0 0.195-0.039 0.265-0.11s0.11-0.166 0.11-0.265v-5.025h1.965c0.083 0.001 0.165-0.025 0.231-0.076s0.114-0.121 0.136-0.202l0.54-1.95c0.015-0.055 0.017-0.114 0.006-0.17s-0.035-0.109-0.070-0.155c-0.035-0.046-0.080-0.083-0.131-0.108s-0.108-0.039-0.165-0.039h-2.512v-2.025c0.019-0.186 0.106-0.358 0.245-0.482s0.319-0.193 0.505-0.193h1.875c0.099 0 0.195-0.040 0.265-0.11s0.11-0.166 0.11-0.265v-1.95z"></path>
</symbol>
<symbol id="icon-bag" viewBox="0 0 18 18">
<path stroke-linejoin="round" stroke-linecap="round" stroke-miterlimit="4" stroke-width="1.125" d="M11.813 7.875v-3.375c0-0.746-0.296-1.461-0.824-1.989s-1.243-0.824-1.989-0.824c-0.746 0-1.461 0.296-1.989 0.824s-0.824 1.243-0.824 1.989v3.375M14.705 6.38l0.947 9c0.053 0.499-0.338 0.932-0.839 0.932h-11.625c-0.118 0-0.235-0.025-0.344-0.073s-0.205-0.118-0.284-0.206c-0.079-0.088-0.139-0.192-0.176-0.304s-0.049-0.232-0.037-0.349l0.948-9c0.022-0.207 0.12-0.399 0.275-0.539s0.356-0.217 0.565-0.217h9.731c0.432 0 0.794 0.326 0.839 0.755zM6.469 7.875c0 0.075-0.030 0.146-0.082 0.199s-0.124 0.082-0.199 0.082-0.146-0.030-0.199-0.082c-0.053-0.053-0.082-0.124-0.082-0.199s0.030-0.146 0.082-0.199c0.053-0.053 0.124-0.082 0.199-0.082s0.146 0.030 0.199 0.082c0.053 0.053 0.082 0.124 0.082 0.199v0zM12.094 7.875c0 0.075-0.030 0.146-0.082 0.199s-0.124 0.082-0.199 0.082c-0.075 0-0.146-0.030-0.199-0.082s-0.082-0.124-0.082-0.199 0.030-0.146 0.082-0.199c0.053-0.053 0.124-0.082 0.199-0.082s0.146 0.030 0.199 0.082c0.053 0.053 0.082 0.124 0.082 0.199v0z"></path>
</symbol>
</defs>
</svg>
